<svg width="28" height="28" viewBox="0 0 28 28" fill="none" xmlns="http://www.w3.org/2000/svg">
<path d="M3.5 28C2.57174 28 1.68151 27.6313 1.02513 26.9749C0.368751 26.3185 7.95844e-07 25.4283 8.3642e-07 24.5L1.75436e-06 3.5C1.79493e-06 2.57174 0.368752 1.6815 1.02513 1.02513C1.68151 0.368748 2.57174 -1.1115e-06 3.5 -1.07093e-06L24.5 -1.5299e-07C25.4283 -1.12414e-07 26.3185 0.368749 26.9749 1.02513C27.6313 1.6815 28 2.57174 28 3.5L28 24.5C28 25.4283 27.6312 26.3185 26.9749 26.9749C26.3185 27.6313 25.4283 28 24.5 28L3.5 28ZM14.875 20.125L14.875 9.98725L18.6305 13.7445C18.7948 13.9088 19.0176 14.0011 19.25 14.0011C19.4824 14.0011 19.7052 13.9088 19.8695 13.7445C20.0338 13.5802 20.1261 13.3574 20.1261 13.125C20.1261 12.8926 20.0338 12.6698 19.8695 12.5055L14.6195 7.2555C14.5382 7.17401 14.4417 7.10936 14.3354 7.06525C14.2291 7.02114 14.1151 6.99844 14 6.99844C13.8849 6.99844 13.7709 7.02114 13.6646 7.06525C13.5583 7.10936 13.4618 7.17401 13.3805 7.2555L8.1305 12.5055C7.9662 12.6698 7.8739 12.8926 7.8739 13.125C7.8739 13.3574 7.9662 13.5802 8.1305 13.7445C8.2948 13.9088 8.51764 14.0011 8.75 14.0011C8.98236 14.0011 9.2052 13.9088 9.3695 13.7445L13.125 9.98725L13.125 20.125C13.125 20.3571 13.2172 20.5796 13.3813 20.7437C13.5454 20.9078 13.7679 21 14 21C14.2321 21 14.4546 20.9078 14.6187 20.7437C14.7828 20.5796 14.875 20.3571 14.875 20.125Z" fill="#FF0000"/>
</svg>
